<svg width="600" height="65" viewBox="0 0 600 65" fill="none" xmlns="http://www.w3.org/2000/svg">
    <g clip-path="url(#qzwgu0vp5a)">
        <mask id="co2gqocsvb" style="mask-type:luminance" maskUnits="userSpaceOnUse" x="0" y="0" width="600" height="65">
            <path d="M600 0H0v65h600V0z" fill="#fff"/>
        </mask>
        <g mask="url(#co2gqocsvb)" stroke="#000" stroke-width="16">
            <path d="M7.94 8.78h17.567c3.885 0 20.777 3.038 21.452 22.454.676 19.415-13.616 25.156-19.392 25.831-5.775.675-19.628 0-19.628 0V8.779zM502.703 8.78h17.567c3.885 0 20.777 3.038 21.453 22.454.676 19.415-13.617 25.156-19.392 25.831-5.775.675-19.628 0-19.628 0V8.779z" stroke-miterlimit="10"/>
            <path d="M58.784 68.377 83.755 4.052l25.198 64.325M66.703 47.978h34.003M110.304-3.861l23.665 68.613 24.308-68.613M178.302.697v64.055M203.885 64.752V0l36.656 65V.697M309.231 20.903s-6.669-14.619-21.483-12.812C272 10.012 266.074 23.777 266.554 34.82c.48 11.043 8.807 20.488 18.897 21.928 9.235 1.318 20.415-2.625 25.02-12.757M407.076 20.903s-6.669-14.619-21.483-12.812c-15.748 1.921-21.674 15.686-21.194 26.729.479 11.043 8.807 20.488 18.897 21.928 9.234 1.318 20.415-2.625 25.02-12.757M329.27.697v64.055M454.899 55.208c12.614 0 22.841-10.393 22.841-23.214 0-12.821-10.227-23.215-22.841-23.215-12.615 0-22.842 10.394-22.842 23.215 0 12.82 10.227 23.214 22.842 23.214z" stroke-linejoin="bevel"/>
            <path d="M597.067 7.935h-32.371v49.43h32.371M564.696 31.656h29.735" stroke-miterlimit="10"/>
        </g>
    </g>
    <defs>
        <clipPath id="qzwgu0vp5a">
            <path fill="#fff" d="M0 0h600v65H0z"/>
        </clipPath>
    </defs>
</svg>
